<svg width="239" height="180" viewBox="0 0 239 180" fill="none" xmlns="http://www.w3.org/2000/svg">
<g clip-path="url(#clip0_128_90)">
<path d="M54.263 179.114V86.8662L25.6542 60.6935L0 46.1694V162.835C0 171.842 7.29793 179.114 16.2793 179.114H54.263Z" fill="#4285F4"/>
<path d="M184.494 179.114H222.477C231.486 179.114 238.757 171.815 238.757 162.835V46.1704L209.699 62.8059L184.494 86.8662V179.114Z" fill="#34A853"/>
<path d="M54.263 86.8663L50.3701 50.8225L54.263 16.325L119.378 65.1618L184.494 16.325L188.848 48.96L184.494 86.8663L119.378 135.703L54.263 86.8663Z" fill="#EA4335"/>
<path d="M184.494 16.3249V86.8662L238.757 46.1695V24.4641C238.757 4.33301 215.776 -7.14315 199.688 4.9299L184.494 16.3249Z" fill="#FBBC04"/>
<path d="M0 46.1697L24.9566 64.8879L54.263 86.8666V16.3251L39.0684 4.93009C22.9523 -7.14391 0 4.3332 0 24.4634V46.1697Z" fill="#C5221F"/>
</g>
<defs>
<clipPath id="clip0_128_90">
<rect width="238.756" height="180" fill="white"/>
</clipPath>
</defs>
</svg>
