<svg width="200" height="200" viewBox="0 0 200 200" fill="none" xmlns="http://www.w3.org/2000/svg">
<path d="M181.25 4.68749H18.75C15.063 4.64997 11.5117 6.07662 8.87529 8.65441C6.23892 11.2322 4.73283 14.7506 4.6875 18.4375V181.594C4.74103 185.275 6.25072 188.786 8.8862 191.357C11.5217 193.928 15.0683 195.35 18.75 195.312H181.25C184.937 195.342 188.486 193.91 191.121 191.331C193.756 188.751 195.263 185.234 195.312 181.547V18.3906C195.247 14.7145 193.733 11.2129 191.099 8.64695C188.466 6.081 184.927 4.65808 181.25 4.68749Z" fill="#0076B2"/>
<path d="M32.9063 76.1406H61.2031V167.187H32.9063V76.1406ZM47.0625 30.8281C50.308 30.8281 53.4806 31.7907 56.1789 33.5942C58.8773 35.3976 60.9801 37.9608 62.2214 40.9596C63.4627 43.9583 63.7867 47.2579 63.1524 50.4408C62.5181 53.6237 60.954 56.547 58.6579 58.8409C56.3619 61.1347 53.4371 62.696 50.2536 63.3273C47.0701 63.9586 43.7708 63.6314 40.7733 62.3873C37.7757 61.1431 35.2145 59.0379 33.4136 56.3378C31.6127 53.6378 30.6532 50.4643 30.6563 47.2187C30.6604 42.8702 32.3907 38.7013 35.4671 35.6279C38.5434 32.5545 42.714 30.8281 47.0625 30.8281ZM78.9531 76.1406H106.078V88.6406H106.453C110.234 81.4844 119.453 73.9375 133.219 73.9375C161.875 73.875 167.187 92.7344 167.187 117.187V167.187H138.891V122.891C138.891 112.344 138.703 98.7656 124.188 98.7656C109.672 98.7656 107.203 110.266 107.203 122.203V167.187H78.9531V76.1406Z" fill="white"/>
</svg>
